<svg width="418.8" height="144.18620431098554" viewBox="0 0 369.89473684210526 127.34889708661419" class="css-1j8o68f"><defs id="SvgjsDefs1794"></defs><g id="SvgjsG1795" featurekey="HdFLvg-0" transform="matrix(2.129536096359131,0,0,2.129536096359131,481.8947235844952,-781.2430758464709)" fill="#4f46e5"><path xmlns="http://www.w3.org/2000/svg" d="M-183.3,398.7c-1.2-3.6-6.7-6.4-10.5-7.1c1.2-1,2.3-2.1,2.4-3.6c0-0.5-0.2-0.9-0.6-1.1c-0.7-0.4-1.4-0.5-2.1-0.5  c1.9-4.3,3.7-9.2,1.7-13.5c-1.7-3.7-5.7-6.4-9.8-6c-4.5,0.4-7.5,4-7.7,8.4c-0.1,3,0.7,6.3,1.3,9.2c0.4,1.7,0.6,3.4,1.4,4.9  c-0.3,0.2-0.5,0.4-0.6,0.7c-0.1,0-0.1,0.1-0.2,0.1c-6,3.8-14.6,7-13.3,15.5c0.3,1.8,1.4,6.7,3.2,10.8c-1.2-0.1-2.4-0.7-3.6-0.5  c-1.2,0.1-2.5,0.6-3.4,1.5c-1.6,1.6-1.4,4.2-0.5,6.1c0.8,1.8,2.4,3.4,4.5,3c1.4-0.2,2.4-1.3,3.3-2.3c0.5-0.6,0.7-0.8,1.4-1.1  c0.2-0.1,2.2-0.6,2.4-0.7c0.7,0.5,1.4,0.7,2.1,0.6c0.6-0.1,1.1-0.3,1.7-0.6c4.4-1.2,8.6-1.5,13.1-1.6c5.2-0.2,10.5,0.7,12-5.3  c0.8-2.9,1-6,1.3-8.9C-183.5,404.3-182.6,400.9-183.3,398.7z M-207.4,372.6c3.4-7.5,14-2.4,13.7,4.7c-0.1,3.3-1.8,6.8-3.1,9.9  c-0.5,0.2-0.9,0.5-1.4,0.7c-1.3,0.7-2.6,2-4,2c-1.1,0-2-1.2-3.3-1.2C-205.9,383.5-209.8,377.7-207.4,372.6z M-207.7,392.5  c0.6,1.5,1.9,3,2.8,4.1c-1.7,3-3.4,6.2-4.7,9.4c0-1.7-0.1-3.5-0.6-5c-0.2-0.7-1.2-0.3-1,0.3c0.6,2.4,0.2,5.6,0.3,8  c0,0.7,1,0.8,1.3,0.2c2.3-4.2,4.5-8.4,7.1-12.5c0.3-0.4,0.4-1.1,0-1.4c-0.7-0.7-2.1-1.6-2.3-2.6c-0.5-1.9,1-1.9,2.5-0.7  c0.4,0.3,0.9,0.3,1.3,0c1.1-0.9,3.8-2.5,5.1-2.9c0,0,0,0,0.1,0c1-0.3,1.1,0-1.1,2c-0.6,0.5-0.3,1.5,0.4,1.7c3.3,0.8,0.3,4.1-0.5,5.2  c-1.6,2-2.5,4.5-3.5,6.8c-2.1,4.8-4.8,9.2-8.5,13c-3.6,3.7-4.9,1-6.5-2.8c-1.1-2.6-2.1-5.2-2.8-7.8  C-220.7,399.4-213.5,396.1-207.7,392.5z M-219.7,423.3c-3.1,2.9-6.1-2.8-3.7-4.8c1.7-1.4,4.1-0.1,6.1-0.2c0.5,1,1.1,2,1.8,2.7  C-217.7,421.3-218.1,421.8-219.7,423.3z M-185.7,404.1c-0.5,5.1,0.1,13.2-6.4,14.1c-5.1,0.6-9.8,0.4-14.7,1c0.7-0.9,1.3-1.8,1.9-2.5  c1,0,2.3-0.4,2.9-0.5c2.2-0.4,4.5-0.8,6.7-0.9c0.7,0,1.1-0.6,1.1-1.2c0.9-0.9,1.5-2.1,1.9-3.3c0.5-1.6,1-4.1-0.5-5.2  c-0.4-0.3-1.1-0.3-1.3,0.2c-0.8,1.3-0.2,2.9-0.5,4.4c-0.2,0.9-0.6,1.7-1.1,2.5c-2.6,0.6-5.2,1.2-7.8,1.8c2.4-3.5,4-7.3,5.7-11.1  c1.1-2.3,3.2-3.9,4.3-6c0.5-0.9,0.8-0.9,0.7-2.1c-0.1-0.6-0.4-1.3-0.8-1.9c2.6,0.6,5.2,2.2,6.8,4.2  C-185,399.6-185.5,401.6-185.7,404.1z"></path></g><g id="SvgjsG1796" featurekey="VomJeJ-0" transform="matrix(3.064338747614198,0,0,3.064338747614198,109.54852987862299,26.578195934764075)" fill="#4f46e5"><path d="M7.1 20 l-6.3 -15.6 l4.36 0 l3.92 10.48 l3.94 -10.48 l4.36 0 l-6.32 15.6 l-3.96 0 z M18.98 6.199999999999999 c0 0.94 0.76 1.78 1.82 1.78 c1.04 0 1.84 -0.84 1.84 -1.78 c0 -0.92 -0.8 -1.82 -1.84 -1.82 c-1.06 0 -1.82 0.9 -1.82 1.82 z M19.18 8.42 l0 11.58 l3.24 0 l0 -11.58 l-3.24 0 z M26.04 18.24 c1.16 1.1 2.54 1.72 4.2 1.72 c3.08 0 5.62 -2.2 5.98 -5.04 l0.02 -0.22 l-3.26 0 l-0.04 0.16 c-0.28 1.22 -1.36 2.04 -2.7 2.04 c-1.6 0 -2.76 -1.26 -2.76 -2.76 c0 -1.48 1.16 -2.74 2.76 -2.74 c1.2 0 2.18 0.64 2.6 1.68 l0.04 0.12 l3.32 0 l-0.04 -0.22 c-0.5 -2.66 -3.06 -4.64 -5.92 -4.64 c-3.34 0 -6 2.72 -6 5.8 c0 1.6 0.6 2.98 1.8 4.1 z  M37.66 4.58 c0 5 -0.02 10.24 -0.02 15.24 l0 0.18 l3.24 0 l0 -5.92 c0 -1.44 1.26 -2.7 2.8 -2.7 c1.48 0 2.64 1.14 2.8 2.5 c0.02 0.2 0 0.42 0 0.62 l0.02 1.46 l0 4 l3.24 0.04 l0 -6.02 c0 -1.46 -0.74 -2.9 -1.8 -3.92 c-1.16 -1.12 -2.58 -1.72 -4.26 -1.72 c-1 0 -1.96 0.22 -2.84 0.66 l0 -4.6 l-3.18 0 l0 0.18 z M50.919999999999995 14.16 c0 3.14 2.66 5.84 6.04 5.84 c1.02 0 1.98 -0.22 2.86 -0.66 l0 0.66 l3.18 0 l-0.02 -11.56 l-3.24 0 l0 0.52 c-0.86 -0.42 -1.8 -0.62 -2.78 -0.62 c-3.38 0 -6.04 2.7 -6.04 5.82 z M58.959999999999994 16.14 c-0.54 0.52 -1.2 0.82 -2 0.82 c-1.58 0 -2.8 -1.32 -2.8 -2.8 c0 -1.46 1.22 -2.78 2.8 -2.78 c0.8 0 1.46 0.28 2 0.8 c0.34 0.34 0.78 1.06 0.78 1.48 l0 1.02 c0 0.42 -0.44 1.1 -0.78 1.46 z M64.39999999999999 14.16 c0 3.14 2.66 5.84 6.04 5.84 c1.02 0 1.98 -0.22 2.86 -0.66 l0 0.66 l3.18 0 l-0.02 -11.56 l-3.24 0 l0 0.52 c-0.86 -0.42 -1.8 -0.62 -2.78 -0.62 c-3.38 0 -6.04 2.7 -6.04 5.82 z M72.44 16.14 c-0.54 0.52 -1.2 0.82 -2 0.82 c-1.58 0 -2.8 -1.32 -2.8 -2.8 c0 -1.46 1.22 -2.78 2.8 -2.78 c0.8 0 1.46 0.28 2 0.8 c0.34 0.34 0.78 1.06 0.78 1.48 l0 1.02 c0 0.42 -0.44 1.1 -0.78 1.46 z M78.08 8.42 l0 11.58 l3.18 0 l0.04 -6.04 c0.02 -1.48 1.22 -2.72 2.8 -2.72 l0.84 0 l0.02 -3.04 l-0.86 0 c-0.98 0 -1.94 0.2 -2.8 0.64 l0 -0.42 l-3.22 0 z"></path></g></svg>